<?xml version="1.0" encoding="UTF-8"?>
<!DOCTYPE svg PUBLIC "-//W3C//DTD SVG 1.1//EN" "http://www.w3.org/Graphics/SVG/1.1/DTD/svg11.dtd">
<svg xmlns="http://www.w3.org/2000/svg" version="1.1" width="80px" height="122px" style="shape-rendering:geometricPrecision; text-rendering:geometricPrecision; image-rendering:optimizeQuality; fill-rule:evenodd; clip-rule:evenodd" xmlns:xlink="http://www.w3.org/1999/xlink">
<g><path style="opacity:1" fill="#fcfcfc" d="M -0.5,-0.5 C 26.1667,-0.5 52.8333,-0.5 79.5,-0.5C 79.5,40.1667 79.5,80.8333 79.5,121.5C 52.8333,121.5 26.1667,121.5 -0.5,121.5C -0.5,80.8333 -0.5,40.1667 -0.5,-0.5 Z"/></g>
<g><path style="opacity:1" fill="#111111" d="M 14.5,110.5 C 13.6618,110.158 13.3284,109.492 13.5,108.5C 17.4302,91.764 21.0968,74.9306 24.5,58C 23.6743,51.1984 21.841,44.6984 19,38.5C 18.0975,37.2986 16.9308,36.4652 15.5,36C 4.25241,34.3727 -0.247591,27.8727 2,16.5C 8.74362,6.54013 16.4103,5.87346 25,14.5C 25.6794,19.0287 25.5127,23.5287 24.5,28C 26.4229,36.8578 28.4229,45.6911 30.5,54.5C 31.552,54.6495 32.552,54.4828 33.5,54C 44.0221,44.0073 46.6888,32.3406 41.5,19C 44.7593,5.69293 52.2593,2.52626 64,9.5C 66.4564,7.21404 69.2897,5.54737 72.5,4.5C 74.2077,4.70283 75.541,5.53616 76.5,7C 72.76,8.28988 69.5933,10.4565 67,13.5C 68.8309,24.2993 64.3309,30.7993 53.5,33C 48.8957,37.6029 45.0624,42.7696 42,48.5C 36.1077,62.0541 29.7743,75.3875 23,88.5C 19.8761,95.7435 17.0427,103.077 14.5,110.5 Z"/></g>
<g><path style="opacity:1" fill="#f2f2f2" d="M 51.5,9.5 C 60.0149,9.84388 63.5149,14.1772 62,22.5C 56.1301,30.7259 50.7968,30.3926 46,21.5C 45.3333,19.8333 45.3333,18.1667 46,16.5C 47.371,13.7339 49.2043,11.4006 51.5,9.5 Z"/></g>
<g><path style="opacity:1" fill="#f5f5f5" d="M 10.5,12.5 C 18.9082,12.7497 22.4082,17.083 21,25.5C 19.2683,30.6165 15.7683,32.4499 10.5,31C 3.84048,24.6665 3.84048,18.4998 10.5,12.5 Z"/></g>
<g><path style="opacity:1" fill="#e0e0e0" d="M 28.5,59.5 C 32.6759,58.8307 34.0093,60.3307 32.5,64C 31.2068,64.49 29.8734,64.6567 28.5,64.5C 28.5,62.8333 28.5,61.1667 28.5,59.5 Z"/></g>
<g><path style="opacity:1" fill="#999999" d="M 13.5,108.5 C 13.3284,109.492 13.6618,110.158 14.5,110.5C 13.7717,112.512 12.9383,114.512 12,116.5C 11.5674,113.581 12.0674,110.914 13.5,108.5 Z"/></g>
</svg>
